# xmcd CD database file
#
# Track frame offsets:
#	150
#	33170
#	61122
#	99547
#	134775
#	159345
#
# Disc length: 2550 seconds
#
# Revision: 3
# Processed by: cddbd v1.5.2PL0 Copyright (c) Steve Scherf et al.
# Submitted via: jetAudio 5
#
DISCID=4709f406
DTITLE=Horace Silver - Song For My Father
DYEAR=1964
DGENRE=Jazz
TTITLE0=Song For My Father
TTITLE1=The Natives Are Restless Tonight
TTITLE2=Calcutta Cutie
TTITLE3=Que Pasa
TTITLE4=The Kicker
TTITLE5=Lonely Woman
EXTD=YEAR: 1964
EXTT0=
EXTT1=
EXTT2=
EXTT3=
EXTT4=
EXTT5=
PLAYORDER=
